<svg xmlns="http://www.w3.org/2000/svg" width="246" height="68" viewBox="0 0 246 68">
  <g id="logiForAdMain" transform="translate(-20 -276)">
    <g id="mainLogo">
      <g id="그룹_302" data-name="그룹 302" transform="translate(42 284)">
        <path id="패스_2008" data-name="패스 2008" d="M843.339,401.145a29.959,29.959,0,0,1-4.147,2.484,6.964,6.964,0,0,1-2.321.864l-.2-.266a18.107,18.107,0,0,0,4.784-4.412q.156-.281.322-.619a14.481,14.481,0,0,0,1.17-3.39,11.288,11.288,0,0,0-.22-3.813,27.015,27.015,0,0,0-2.861-6.446,25.487,25.487,0,0,1-2.881-6.75,13.881,13.881,0,0,1-.192-4.471,13.322,13.322,0,0,1,4.771-8.59q4.1-3.512,5.212-3.365l.558.314-.927.657q-4.534,2.523-5.019,6.184a11.882,11.882,0,0,0,.257,4.21,25.272,25.272,0,0,0,3.385,6.786,24.153,24.153,0,0,1,3.459,7.368,16.054,16.054,0,0,1,.252,5.38q-.517,3.9-4.866,7.465Z" transform="translate(-798.781 -359.76)" fill="#7bb9e3"/>
        <path id="패스_2009" data-name="패스 2009" d="M875.674,386.009a6.4,6.4,0,0,0,.089,3.042,15.552,15.552,0,0,0,2.98,4.785A15.037,15.037,0,0,1,881.791,399a8.211,8.211,0,0,1,.079,3.772,9.436,9.436,0,0,1-4.1,5.864q-3.3,2.257-4.7,1.943l-.3-.31.639-.407a5.3,5.3,0,0,0,3.2-3.988,6.051,6.051,0,0,0-.058-2.73A16.225,16.225,0,0,0,873.9,398.5a15.152,15.152,0,0,1-2.75-5.314,9.5,9.5,0,0,1-.01-4.032,8.475,8.475,0,0,1,3.661-5.2q2.961-2.057,3.881-1.853l.529.362Q876.011,384.5,875.674,386.009Z" transform="translate(-821.427 -372.795)" fill="#fff"/>
        <path id="패스_2010" data-name="패스 2010" d="M790.633,391.953a22.238,22.238,0,0,0,7.494,10.123,18.27,18.27,0,0,0,11.122,3.691,24.811,24.811,0,0,0,8.029-1.493l.475-.24a18,18,0,0,0,10.289-10.575l.357-.657a.315.315,0,0,1,.357.357q0,1.547-2.531,5.561a22.305,22.305,0,0,1-7.354,6.988l-.595.357a26.171,26.171,0,0,1-11.851,2.8,24.6,24.6,0,0,1-14.024-4.133,22.487,22.487,0,0,1-8.783-11.568l-.238-.713a51.286,51.286,0,0,1-.953-5.115l-.179-.773-.119-3.39a29.655,29.655,0,0,1,.416-5.115l.119-.833a28.8,28.8,0,0,1,5.679-12.579,31.516,31.516,0,0,1,8.326-7.523q4.193-2.438,4.847-2.438c.238,0,.357.159.357.475l-.711.477Q788.552,361.885,788.552,381l.119,1.488v.953l.238,1.369.119.714a33.147,33.147,0,0,0,1.368,5.717Z" transform="translate(-762.726 -354.679)" fill="#2e3698"/>
        <path id="패스_2011" data-name="패스 2011" d="M750.659,406.821q-10.017-4.746-15.539-7.993t-5.135-4.147q.233-.542,2.87-.163l.409.094q5.383,1.022,17.379,5.688l1.062.4q.023-.053-.542-.3-2.447-1.053-8.957-3.414t-11.519-3.677l-.6-.156q-4.777-1.081-5.171-.162-.5,1.155,5.652,4.874t17.743,9.166l1.114.521q4.379,2,8.03,3.623l1.212.553,5.355,2.325q4.327,1.862,8.117,3.421l1.325.55q11.95,4.874,20.257,7.729t12.427,3.9a33.517,33.517,0,0,0,4.163.948c.015-.035-.229-.161-.729-.376l-.8-.22q-10.689-2.4-40.922-15.417l-2.348-1.031L764,412.906l-2.15-.967-1.123-.5q-4.495-2.007-8.957-4.093Z" transform="translate(-724.876 -379.727)" fill="#fff"/>
      </g>
      <text id="Sungshin_Coin" data-name="Sungshin  Coin" transform="translate(122.449 321)" fill="#fff" font-size="21" font-family="RobotoCondensed-Bold, Roboto" font-weight="700"><tspan x="0" y="0" xml:space="preserve">Sungshin  Coin</tspan></text>
    </g>
    <text id="Coin" transform="translate(209 320.378)" fill="#2e3698" font-size="21" font-family="RobotoCondensed-Bold, Roboto" font-weight="700"><tspan x="0" y="0">Coin</tspan></text>
    <rect id="사각형_672" data-name="사각형 672" width="246" height="68" transform="translate(20 276)" fill="none"/>
  </g>
</svg>
