<svg xmlns="http://www.w3.org/2000/svg" width="25" height="25" viewBox="0 0 25 25">
  <g id="Social" transform="translate(0 0)">
    <rect id="rectangle" width="25" height="25" fill="none"/>
    <path id="path" d="M8.089,11.513c-2.363,0-7.09.95-7.09,2.849V16.4H15.178V14.362c0-1.9-4.725-2.849-7.089-2.849m8.1,0c-.295,0-.625.015-.978.044a3.357,3.357,0,0,1,1.99,2.806V16.4h6.075V14.362c0-1.9-4.724-2.849-7.087-2.849M8.089,5A2.791,2.791,0,0,0,5.051,7.442,2.791,2.791,0,0,0,8.089,9.885a2.781,2.781,0,0,0,3.029-2.442A2.781,2.781,0,0,0,8.089,5m8.1,0a2.791,2.791,0,0,0-3.039,2.443,2.79,2.79,0,0,0,3.039,2.442,2.779,2.779,0,0,0,3.027-2.442A2.78,2.78,0,0,0,16.192,5" transform="translate(0.36 1.801)" fill-rule="evenodd"/>
  </g>
</svg>
