<svg xmlns="http://www.w3.org/2000/svg" viewBox="0 0 184.05 158.16"><defs><style>.cls-1{fill:none;stroke:#fff;stroke-miterlimit:10;stroke-width:0.75px;}</style></defs><title>iron-white</title><g id="레이어_2" data-name="레이어 2"><g id="레이어_1-2" data-name="레이어 1"><g id="레이어_5" data-name="레이어 5"><ellipse class="cls-1" cx="175.91" cy="150.58" rx="5.68" ry="4.51" transform="translate(-54.67 129.38) rotate(-35.31)"/><ellipse class="cls-1" cx="175.91" cy="150.58" rx="8.29" ry="6.59" transform="translate(-54.67 129.38) rotate(-35.31)"/><polygon class="cls-1" points="116.51 106.22 111.29 112.33 8.27 45.86 13.49 39.74 116.51 106.22"/><path class="cls-1" d="M98.38,118.49l69.89,34.65"/><path class="cls-1" d="M169.49,147.94l-48.34-33-7.46-5.09"/><path class="cls-1" d="M11.74,41.09c-32.43,10.25,11.1,59.76,48.41,72.82,38.06,13.32,51.14-1.58,51.14-1.58"/><path class="cls-1" d="M135,83.13l41.47,60.38"/><path class="cls-1" d="M171.38,146.07,130,103.63,42.51,13.79c6.62-33.61,66.37,2.54,84.13,36s2.55,46.57,2.55,46.57"/></g></g></g></svg>