<svg xmlns="http://www.w3.org/2000/svg" viewBox="0 0 250.29 125.96"><defs><style>.cls-1{fill:none;stroke:#fff;stroke-miterlimit:10;stroke-width:0.75px;}</style></defs><title>mat-white</title><g id="레이어_2" data-name="레이어 2"><g id="레이어_1-2" data-name="레이어 1"><g id="레이어_1-2-2" data-name="레이어 1-2"><path class="cls-1" d="M84.39,120.52c-.84,0-1.67.1-2.73.11-.57,0-1.11.06-1.72.07-26.95.51-61.15,8.57-74.19-11.39C-5.51,92.07,1.49,70.17,21.35,60.37c15.9-7.8,36.1-3,45.2,10.8,7.2,11,2.8,25-10,31.3-10.2,5-23.1,1.9-28.9-6.9-4.6-7.1-1.8-16,6.4-20,6.5-3.2,14.8-1.2,18.5,4.4,3,4.5,1.1,10.3-4.1,12.8-4.2,2.1-9.5.8-11.8-2.8-1.9-2.9-.7-6.6,2.6-8.2"/><path class="cls-1" d="M24.49,59.24l117-55.8c42.1-12.5,48,17.2,47.9,17.6-.2.6-.4,1.2-.6,1.7-3.3,7.6-127,76.9-129.5,78.3"/><path class="cls-1" d="M188.75,22.74c63.7-2.8,61.6,3.4,61,5.9s-74.4,96.9-74.4,96.9-35.56-7.56-96-4.86"/></g></g></g></svg>