<svg xmlns="http://www.w3.org/2000/svg" viewBox="0 0 189.66 190.75"><defs><style>.cls-1{fill:none;stroke:#fff;stroke-miterlimit:10;stroke-width:0.75px;}</style></defs><title>umbr-white</title><g id="레이어_2" data-name="레이어 2"><g id="레이어_1-2" data-name="레이어 1"><g id="레이어_2-2" data-name="레이어 2-2"><path class="cls-1" d="M189.34,116.68s-14.23-23.93-31.55,0c0,0-14.19-23.87-31.47-.09-1-1.49-14.76-21.13-31.36.09,0,0-14.24-23.93-31.55,0,0,0-14.23-23.93-31.54,0,0,0-14.22-22.08-31.49,0C.35,64.36,43.65,22,97.08,22.2V0"/><path class="cls-1" d="M96.92,114.81c.88,16.78-.85,42.79.28,57.83S88,192.53,81.34,189.53c-8-3.59-6.76-15.33-6.1-18.27"/></g></g></g></svg>